<?xml version="1.0" standalone="no"?><!DOCTYPE svg PUBLIC "-//W3C//DTD SVG 1.1//EN" "http://www.w3.org/Graphics/SVG/1.1/DTD/svg11.dtd"><svg t="1618990505199" class="icon" viewBox="0 0 1024 1024" version="1.1" xmlns="http://www.w3.org/2000/svg" p-id="5299" xmlns:xlink="http://www.w3.org/1999/xlink" width="200" height="200"><defs><style type="text/css"></style></defs><path d="M511.998465 66.541509c-246.01816 0-445.457468 199.440331-445.457468 445.458491 0 246.017136 199.439308 445.457468 445.457468 445.457468 246.019183 0 445.459514-199.440331 445.459514-445.457468C957.457979 265.98184 758.017648 66.541509 511.998465 66.541509zM511.998465 929.808758c-230.747361 0-417.809781-187.05628-417.809781-417.808758 0-230.753501 187.06242-417.809781 417.809781-417.809781 230.748385 0 417.808758 187.05628 417.808758 417.809781C929.807223 742.752478 742.74685 929.808758 511.998465 929.808758zM319.958684 437.127755c26.562982 0 48.095391-27.030633 48.095391-60.375066s-21.532409-60.375066-48.095391-60.375066-48.095391 27.030633-48.095391 60.375066S293.395702 437.127755 319.958684 437.127755zM692.44214 437.127755c26.561959 0 48.095391-27.030633 48.095391-60.375066s-21.533432-60.375066-48.095391-60.375066-48.095391 27.030633-48.095391 60.375066S665.880181 437.127755 692.44214 437.127755zM216.02045 547.644825C226.45101 702.032054 354.968036 824.037782 512.000512 824.037782c157.031453 0 285.546432-122.005728 295.976992-276.392958L216.02045 547.644825z" p-id="5300" fill="#8a8a8a"></path></svg>