<?xml version="1.0" standalone="no"?><!DOCTYPE svg PUBLIC "-//W3C//DTD SVG 1.1//EN" "http://www.w3.org/Graphics/SVG/1.1/DTD/svg11.dtd"><svg t="1618990318285" class="icon" viewBox="0 0 1024 1024" version="1.1" xmlns="http://www.w3.org/2000/svg" p-id="2910" xmlns:xlink="http://www.w3.org/1999/xlink" width="200" height="200"><defs><style type="text/css"></style></defs><path d="M513.663384 65.714677c-245.246587 0-444.057585 198.812021-444.057585 444.057585S268.416797 953.829847 513.663384 953.829847 957.720969 755.018849 957.720969 509.772262 758.909971 65.714677 513.663384 65.714677z m0 808.819173c-201.452151 0-364.761588-163.309436-364.761587-364.761588s163.309436-364.761588 364.761587-364.761587 364.761588 163.309436 364.761588 364.761587-163.309436 364.761588-364.761588 364.761588z" p-id="2911" fill="#8a8a8a"></path><path d="M703.973778 478.053863h-158.591995v-158.591994c0-17.517979-14.20042-31.718399-31.718399-31.718399s-31.718399 14.20042-31.718399 31.718399v158.591994h-158.591994c-17.517979 0-31.718399 14.20042-31.718399 31.718399s14.20042 31.718399 31.718399 31.718399h158.591994v158.591995c0 17.517979 14.20042 31.718399 31.718399 31.718399s31.718399-14.20042 31.718399-31.718399v-158.591995h158.591995c17.517979 0 31.718399-14.20042 31.718399-31.718399s-14.20042-31.718399-31.718399-31.718399z" p-id="2912" fill="#8a8a8a"></path></svg>